<svg width="20" height="20" viewBox="0 0 20 20" fill="none" xmlns="http://www.w3.org/2000/svg" class='w-full h-full'>
<path fill-rule="evenodd" clip-rule="evenodd" d="M16.4165 5.23496C16.5752 5.38879 16.6663 5.59936 16.6697 5.82033C16.6732 6.04131 16.5887 6.25461 16.4349 6.4133L8.59736 14.5C8.4886 14.6121 8.35843 14.7013 8.21457 14.7622C8.0707 14.823 7.91607 14.8544 7.75986 14.8544C7.60364 14.8544 7.44901 14.823 7.30515 14.7622C7.16129 14.7013 7.03112 14.6121 6.92236 14.5L3.57152 11.0433C3.49437 10.9649 3.43349 10.8721 3.39239 10.77C3.3513 10.668 3.3308 10.5589 3.33209 10.4489C3.33337 10.339 3.35641 10.2303 3.39988 10.1293C3.44335 10.0283 3.50638 9.93686 3.58535 9.86031C3.66431 9.78376 3.75765 9.72361 3.85998 9.6833C3.96231 9.643 4.0716 9.62335 4.18156 9.62549C4.29151 9.62762 4.39996 9.6515 4.50064 9.69575C4.60133 9.74 4.69226 9.80374 4.76819 9.8833L7.75986 12.9691L15.2382 5.2533C15.392 5.09462 15.6026 5.00354 15.8236 5.0001C16.0445 4.99666 16.2578 5.08115 16.4165 5.23496Z" fill="currentColor"/>
</svg>
