<svg width="18" height="18" viewBox="0 0 18 18" fill="none" xmlns="http://www.w3.org/2000/svg" class="w-full h-full">
<path fill-rule="evenodd" clip-rule="evenodd" d="M17.5881 0.412304C18.0233 0.84746 18.0233 1.55299 17.5881 1.98814L1.98814 17.5881C1.55299 18.0233 0.84746 18.0233 0.412304 17.5881C-0.0228514 17.153 -0.0228514 16.4475 0.412304 16.0123L16.0123 0.412304C16.4475 -0.0228514 17.153 -0.0228514 17.5881 0.412304Z" fill="currentColor"/>
<path fill-rule="evenodd" clip-rule="evenodd" d="M0.412304 0.412304C0.84746 -0.0228514 1.55299 -0.0228514 1.98814 0.412304L17.5881 16.0123C18.0233 16.4475 18.0233 17.153 17.5881 17.5881C17.153 18.0233 16.4475 18.0233 16.0123 17.5881L0.412304 1.98814C-0.0228514 1.55299 -0.0228514 0.84746 0.412304 0.412304Z" fill="currentColor"/>
</svg>