<svg width="25" height="24" viewBox="0 0 25 24" fill="none" xmlns="http://www.w3.org/2000/svg" class="w-full h-full">
<path fill-rule="evenodd" clip-rule="evenodd" d="M7.24766 3.75C4.76372 3.75 2.75 5.76372 2.75 8.24766V15.4247C2.75 17.9086 4.76372 19.9224 7.24766 19.9224H15.8911C18.375 19.9224 20.3888 17.9086 20.3888 15.4247C20.3888 15.0105 20.7245 14.6747 21.1388 14.6747C21.553 14.6747 21.8888 15.0105 21.8888 15.4247C21.8888 18.7371 19.2035 21.4224 15.8911 21.4224H7.24766C3.9353 21.4224 1.25 18.7371 1.25 15.4247V8.24766C1.25 4.9353 3.9353 2.25 7.24766 2.25H15.8911C16.3053 2.25 16.6411 2.58579 16.6411 3C16.6411 3.41421 16.3053 3.75 15.8911 3.75H7.24766Z" fill="currentColor"/>
<path fill-rule="evenodd" clip-rule="evenodd" d="M5.78564 7.5382C5.78564 7.12399 6.12143 6.7882 6.53564 6.7882H11.9346C12.3488 6.7882 12.6846 7.12399 12.6846 7.5382C12.6846 7.95242 12.3488 8.2882 11.9346 8.2882H6.53564C6.12143 8.2882 5.78564 7.95242 5.78564 7.5382Z" fill="currentColor"/>
<path fill-rule="evenodd" clip-rule="evenodd" d="M5.69995 12C5.69995 11.5858 6.03574 11.25 6.44995 11.25H15.45C15.8642 11.25 16.2 11.5858 16.2 12C16.2 12.4142 15.8642 12.75 15.45 12.75H6.44995C6.03574 12.75 5.69995 12.4142 5.69995 12Z" fill="currentColor"/>
<path fill-rule="evenodd" clip-rule="evenodd" d="M24.0106 9.56066L21.4803 12.5303C21.1874 12.8232 20.7125 12.8232 20.4196 12.5303L17.8893 9.56066C17.5964 9.26777 17.5964 8.79289 17.8893 8.5C18.1822 8.20711 18.6571 8.20711 18.9499 8.5L20.1999 10.1893V3C20.1999 2.58579 20.5357 2.25 20.9499 2.25C21.3642 2.25 21.6999 2.58579 21.6999 3V10.1893L22.9499 8.5C23.2428 8.20711 23.7177 8.20711 24.0106 8.5C24.3035 8.79289 24.3035 9.26777 24.0106 9.56066Z" fill="currentColor"/>
</svg>
