<svg width="201" height="89" viewBox="0 0 201 89" fill="none" xmlns="http://www.w3.org/2000/svg">
<g clip-path="url(#clip0_499_19102)">
<path fill-rule="evenodd" clip-rule="evenodd" d="M-30.5254 88.7716L-30.5254 40.729C-30.5254 40.729 -10.673 62.6429 -7.25512 61.9858C11.1891 58.4396 33.1783 36.5906 43.487 36.5906C53.7957 36.5906 87.1188 54.7727 101.77 54.7727C116.422 54.7727 144.433 3.44727 155.637 3.44727C166.841 3.44727 188.111 40.729 198.469 40.729C208.826 40.729 240.961 26.0092 251.303 26.0092C261.646 26.0092 288.363 36.5906 298.706 36.5906C302.423 36.5906 326.285 29.5637 326.285 29.5637V88.7716H-30.5254Z" fill="url(#paint0_linear_499_19102)"/>
<path d="M-30.5254 39.91C-30.5254 39.91 -14.5793 61.1916 -5.5314 61.1916C3.51647 61.1916 33.1783 35.7669 43.487 35.7669C53.7957 35.7669 87.1188 53.9701 101.77 53.9701C116.422 53.9701 144.433 2.58496 155.637 2.58496C166.841 2.58496 188.111 39.91 198.469 39.91C208.826 39.91 240.961 25.1731 251.303 25.1731C261.646 25.1731 288.364 35.7669 298.706 35.7669C309.048 35.7669 326.285 28.7318 326.285 28.7318" stroke="#4050E7" stroke-width="2"/>
</g>
<defs>
<linearGradient id="paint0_linear_499_19102" x1="-30.5254" y1="3.44727" x2="-30.5254" y2="88.7716" gradientUnits="userSpaceOnUse">
<stop stop-color="#4050E7"/>
<stop offset="1" stop-color="#141518" stop-opacity="0"/>
</linearGradient>
<clipPath id="clip0_499_19102">
<rect width="200" height="88.1057" fill="white" transform="translate(0.5)"/>
</clipPath>
</defs>
</svg>
