<svg width="50" height="50" viewBox="0 0 50 50" fill="none" xmlns="http://www.w3.org/2000/svg" class="w-full h-full">
<path fill-rule="evenodd" clip-rule="evenodd" d="M14.0576 7.8125C8.88276 7.8125 4.6875 12.0078 4.6875 17.1826V32.1348C4.6875 37.3097 8.88276 41.5049 14.0576 41.5049H32.0648C37.2396 41.5049 41.4349 37.3097 41.4349 32.1348C41.4349 31.2718 42.1345 30.5723 42.9974 30.5723C43.8604 30.5723 44.5599 31.2718 44.5599 32.1348C44.5599 39.0356 38.9655 44.6299 32.0648 44.6299H14.0576C7.15687 44.6299 1.5625 39.0356 1.5625 32.1348V17.1826C1.5625 10.2819 7.15687 4.6875 14.0576 4.6875H32.0648C32.9277 4.6875 33.6273 5.38706 33.6273 6.25C33.6273 7.11295 32.9277 7.8125 32.0648 7.8125H14.0576Z" fill="#4050E7"/>
<path fill-rule="evenodd" clip-rule="evenodd" d="M11.0118 15.7046C11.0118 14.8416 11.7113 14.1421 12.5743 14.1421H23.8221C24.685 14.1421 25.3846 14.8416 25.3846 15.7046C25.3846 16.5675 24.685 17.2671 23.8221 17.2671H12.5743C11.7113 17.2671 11.0118 16.5675 11.0118 15.7046Z" fill="#4050E7"/>
<path fill-rule="evenodd" clip-rule="evenodd" d="M10.8332 25C10.8332 24.1371 11.5328 23.4375 12.3957 23.4375H31.1457C32.0087 23.4375 32.7082 24.1371 32.7082 25C32.7082 25.8629 32.0087 26.5625 31.1457 26.5625H12.3957C11.5328 26.5625 10.8332 25.8629 10.8332 25Z" fill="#4050E7"/>
<path fill-rule="evenodd" clip-rule="evenodd" d="M48.9804 19.918L43.7089 26.1049C43.0987 26.715 42.1094 26.715 41.4992 26.1049L36.2277 19.918C35.6175 19.3078 35.6175 18.3185 36.2277 17.7083C36.8379 17.0981 37.8272 17.0981 38.4374 17.7083L41.0416 21.2278V6.25C41.0416 5.38706 41.7411 4.6875 42.6041 4.6875C43.467 4.6875 44.1666 5.38706 44.1666 6.25V21.2278L46.7707 17.7083C47.3809 17.0981 48.3702 17.0981 48.9804 17.7083C49.5906 18.3185 49.5906 19.3078 48.9804 19.918Z" fill="url(#paint0_linear_916_37031)"/>
<defs>
<linearGradient id="paint0_linear_916_37031" x1="24.5" y1="4.5" x2="26" y2="34" gradientUnits="userSpaceOnUse">
<stop stop-color="#4050E7" stop-opacity="0"/>
<stop offset="1" stop-color="#4050E7"/>
</linearGradient>
</defs>
</svg>
