<svg width="161" height="81" viewBox="0 0 161 81" fill="none" xmlns="http://www.w3.org/2000/svg">
<g clip-path="url(#clip0_499_19109)">
<rect opacity="0.7" x="0.5" y="38.9629" width="4" height="41.1429" rx="2" fill="#525FC9"/>
<rect opacity="0.7" x="15.3574" y="43.5342" width="4" height="36.5714" rx="2" fill="#525FC9"/>
<rect opacity="0.7" x="30.2148" y="27.5342" width="4" height="52.5714" rx="2" fill="#525FC9"/>
<rect opacity="0.7" x="43.9297" y="35.5342" width="4" height="44.5714" rx="2" fill="#525FC9"/>
<rect opacity="0.7" x="58.7852" y="29.8193" width="4" height="50.2857" rx="2" fill="#525FC9"/>
<rect opacity="0.7" x="73.6426" y="10.3916" width="4" height="69.7143" rx="2" fill="#525FC9"/>
<rect opacity="0.7" x="88.5" y="0.105469" width="4" height="80" rx="2" fill="#4050E7"/>
<rect opacity="0.7" x="102.215" y="10.3916" width="4" height="69.7143" rx="2" fill="#525FC9"/>
<rect opacity="0.7" x="117.07" y="29.8193" width="4" height="50.2857" rx="2" fill="#525FC9"/>
<rect opacity="0.7" x="131.93" y="21.8193" width="4" height="58.2857" rx="2" fill="#525FC9"/>
<rect opacity="0.7" x="146.785" y="35.5342" width="4" height="44.5714" rx="2" fill="#525FC9"/>
</g>
<defs>
<clipPath id="clip0_499_19109">
<rect width="160" height="80.0003" fill="white" transform="translate(0.5 0.105469)"/>
</clipPath>
</defs>
</svg>
