<svg width="22" height="22" viewBox="0 0 22 22" fill="none" xmlns="http://www.w3.org/2000/svg">
<mask id="mask0_439_23101" style="mask-type:luminance" maskUnits="userSpaceOnUse" x="1" y="1" width="20" height="20">
<path d="M20.1673 1.83301H1.83398V20.1663H20.1673V1.83301Z" fill="white"/>
</mask>
<g mask="url(#mask0_439_23101)">
<mask id="mask1_439_23101" style="mask-type:luminance" maskUnits="userSpaceOnUse" x="1" y="1" width="20" height="20">
<path d="M1.83398 1.83268H20.1673V20.166H1.83398V1.83268Z" fill="white"/>
</mask>
<g mask="url(#mask1_439_23101)">
<path fill-rule="evenodd" clip-rule="evenodd" d="M1.83398 17.3014C1.83398 18.8835 3.14769 20.166 4.76822 20.166H12.1405C13.761 20.166 15.0747 18.8835 15.0747 17.3014V15.8691C15.0747 15.4736 14.7463 15.153 14.3412 15.153C13.936 15.153 13.6076 15.4736 13.6076 15.8691V17.3014C13.6076 18.0925 12.9508 18.7337 12.1405 18.7337H4.76822C3.95796 18.7337 3.3011 18.0925 3.3011 17.3014V4.69726C3.3011 3.90623 3.95796 3.26497 4.76822 3.26497H12.1405C12.9508 3.26497 13.6076 3.90623 13.6076 4.69726V6.12956C13.6076 6.52507 13.936 6.8457 14.3412 6.8457C14.7463 6.8457 15.0747 6.52507 15.0747 6.12956V4.69726C15.0747 3.1152 13.761 1.83268 12.1405 1.83268H4.76822C3.14769 1.83268 1.83398 3.1152 1.83398 4.69726V17.3014Z" fill="currentColor"/>
<path fill-rule="evenodd" clip-rule="evenodd" d="M8.96484 11C8.96484 11.5625 9.28742 12.0186 9.68534 12.0186H19.4481C19.846 12.0186 20.1685 11.5625 20.1685 11C20.1685 10.4375 19.846 9.98152 19.4481 9.98152H9.68534C9.28742 9.98152 8.96484 10.4375 8.96484 11Z" fill="currentColor"/>
<path fill-rule="evenodd" clip-rule="evenodd" d="M17.3026 13.8475C17.5577 14.125 17.9712 14.125 18.2262 13.8475L19.6887 12.2563C19.6887 12.2563 19.6887 12.2563 19.6887 12.2563C20.3263 11.5625 20.3263 10.4377 19.6887 9.74396C19.6887 9.74395 19.6887 9.74396 19.6887 9.74396L18.2262 8.15269C17.9712 7.87518 17.5577 7.87517 17.3026 8.15268C17.0476 8.43018 17.0476 8.8801 17.3026 9.15761L18.7651 10.7489C18.8926 10.8876 18.8926 11.1126 18.7651 11.2513L17.3026 12.8426C17.0476 13.1201 17.0476 13.57 17.3026 13.8475Z" fill="currentColor"/>
</g>
</g>
</svg>