<svg width="96" height="30" viewBox="0 0 96 30" fill="none" xmlns="http://www.w3.org/2000/svg" class="w-[96px] h-[30px] md:w-[128px] md:h-[40px]">
<path fill-rule="evenodd" clip-rule="evenodd" d="M16.9544 27.75C24.2469 27.75 30.1587 21.8738 30.1587 14.625C30.1587 12.0225 29.3967 9.59697 28.0823 7.55671C28.0039 7.56405 27.9224 7.56776 27.8376 7.56776H18.75V13.7524H27.1772C28.2149 13.7524 28.8124 14.3118 28.8124 15.3063C28.8124 16.3319 28.2149 16.9225 27.1772 16.9225H18.75V24.4435C18.75 25.8109 18.0896 26.5568 16.8004 26.5568C15.4797 26.5568 14.7251 25.8109 14.7251 24.4435V6.5111C14.7251 5.14363 15.4797 4.39775 16.8633 4.39775H25.2309C22.9667 2.58503 20.088 1.5 16.9544 1.5C9.66179 1.5 3.75 7.37626 3.75 14.625C3.75 21.8738 9.66179 27.75 16.9544 27.75Z" fill="url(#finlab_icon_gradient)"/>
<path d="M39.7514 21.987C40.5868 21.987 41.0146 21.5009 41.0146 20.6097V15.7086H46.4752C47.1476 15.7086 47.5347 15.3238 47.5347 14.6554C47.5347 14.0074 47.1476 13.6428 46.4752 13.6428H41.0146V9.61255H46.903C47.5958 9.61255 47.9625 9.22771 47.9625 8.55941C47.9625 7.91131 47.5958 7.54676 46.903 7.54676H39.7922C38.8956 7.54676 38.4067 8.03282 38.4067 8.92396V20.6097C38.4067 21.5009 38.8956 21.987 39.7514 21.987Z" fill="#F7F8F8"/>
<path d="M51.0711 9.89607C52.0491 9.89607 52.5788 9.40999 52.5788 8.55941C52.5788 7.68853 52.0491 7.22271 51.0711 7.22271C50.1134 7.22271 49.5633 7.68853 49.5633 8.55941C49.5633 9.40999 50.1134 9.89607 51.0711 9.89607ZM51.0711 21.9667C51.9065 21.9667 52.3547 21.4604 52.3547 20.5895V13.1567C52.3547 12.2656 51.886 11.7796 51.0711 11.7796C50.2561 11.7796 49.8078 12.2656 49.8078 13.1567V20.5895C49.8078 21.4604 50.2561 21.9667 51.0711 21.9667Z" fill="#F7F8F8"/>
<path d="M55.6531 21.987C56.4885 21.987 56.9367 21.5211 56.9367 20.6907V16.2554C56.9367 14.7162 57.8943 13.7036 59.3817 13.7036C60.6042 13.7036 61.1748 14.3719 61.1748 15.9111V20.6907C61.1748 21.5211 61.6434 21.987 62.4584 21.987C63.2733 21.987 63.7216 21.5211 63.7216 20.6907V15.7896C63.7216 13.0353 62.5806 11.7188 60.1967 11.7188C58.7704 11.7188 57.548 12.3264 56.8756 13.4605V13.0353C56.8756 12.2048 56.4273 11.7593 55.6327 11.7593C54.8381 11.7593 54.3898 12.2048 54.3898 13.0353V20.6907C54.3898 21.5211 54.8381 21.987 55.6531 21.987Z" fill="#F7F8F8"/>
<path d="M69.0998 22.0274C69.3851 22.0274 69.6907 22.0072 69.976 21.9667C70.6076 21.8856 70.8521 21.5211 70.8521 20.8325C70.8521 20.0629 70.7502 19.8604 70.3631 19.9009C70.1797 19.9211 69.9964 19.9414 69.7722 19.9414C68.7943 19.9414 68.2441 19.3541 68.2441 18.1187V8.66066C68.2441 7.83029 67.7755 7.38473 66.9605 7.38473C66.1455 7.38473 65.6972 7.83029 65.6972 8.66066V18.2402C65.6972 20.7313 66.8382 22.0274 69.0998 22.0274Z" fill="#F7F8F8"/>
<path d="M74.8732 22.0274C76.2787 22.0274 77.318 21.3591 77.7661 20.2452V20.6907C77.7661 21.5211 78.1943 21.987 78.9682 21.987C79.7222 21.987 80.1497 21.5211 80.1497 20.6907V15.8301C80.1497 13.015 78.7648 11.7188 75.8505 11.7188C74.8931 11.7188 73.7116 11.9213 72.4686 12.4276C71.2054 12.9339 71.7555 14.8579 73.0593 14.2504C74.058 13.7846 74.9749 13.6225 75.7694 13.6225C77.175 13.6225 77.7256 14.1694 77.7256 15.5263V15.9516H77.0121C72.693 15.9516 71.1442 16.7212 71.1442 18.8883C71.1442 20.6705 72.7129 22.0274 74.8732 22.0274ZM75.4024 20.2857C74.2821 20.2857 73.6298 19.6579 73.6298 18.7667C73.6298 17.7338 74.4855 17.4098 77.0327 17.4098H77.7256V17.8554C77.7256 19.2731 76.7269 20.2857 75.4024 20.2857Z" fill="#F7F8F8"/>
<path d="M87.8697 22.0274C90.4774 22.0274 92.25 20.0427 92.25 16.863C92.25 13.6833 90.498 11.7188 87.8697 11.7188C86.4635 11.7188 85.2613 12.3669 84.6709 13.3795V8.66066C84.6709 7.83029 84.2022 7.38473 83.387 7.38473C82.5718 7.38473 82.1237 7.83029 82.1237 8.66066V20.6907C82.1237 21.5211 82.5718 21.987 83.387 21.987C84.1815 21.987 84.6297 21.5211 84.6297 20.6907V20.2655C85.2009 21.3591 86.4229 22.0274 87.8697 22.0274ZM87.1563 20.1034C85.6284 20.1034 84.6297 19.0098 84.6297 16.863C84.6297 14.7162 85.6284 13.6428 87.1563 13.6428C88.6643 13.6428 89.6829 14.7162 89.6829 16.863C89.6829 19.0098 88.6643 20.1034 87.1563 20.1034Z" fill="#F7F8F8"/>
<defs>
<linearGradient id="finlab_icon_gradient" x1="37.3783" y1="5.40199" x2="39.4319" y2="30.9099" gradientUnits="userSpaceOnUse">
<stop stop-color="#2AAC95"/>
<stop offset="0.989583" stop-color="#76D1F7"/>
</linearGradient>
</defs>
</svg>