<svg width="19" height="15" viewBox="0 0 19 15" fill="none" xmlns="http://www.w3.org/2000/svg">
<path fill-rule="evenodd" clip-rule="evenodd" d="M19 13.7225C19 14.3055 18.4512 14.7781 17.7742 14.7781L1.22581 14.7781C0.548813 14.7781 -7.16221e-08 14.3055 -4.61398e-08 13.7225C-2.06575e-08 13.1396 0.548811 12.667 1.22581 12.667L17.7742 12.667C18.4512 12.667 19 13.1396 19 13.7225Z" fill="currentColor"/>
<path fill-rule="evenodd" clip-rule="evenodd" d="M19 7.38856C19 7.97153 18.5274 8.44412 17.9444 8.44412L1.05556 8.44412C0.472587 8.44412 -7.16221e-08 7.97153 -4.61398e-08 7.38856C-2.06575e-08 6.8056 0.472588 6.33301 1.05556 6.33301L17.9444 6.33301C18.5274 6.33301 19 6.8056 19 7.38856Z" fill="currentColor"/>
<path fill-rule="evenodd" clip-rule="evenodd" d="M19 1.05555C19 1.63852 18.4512 2.11111 17.7742 2.11111L1.22581 2.11111C0.548813 2.11111 -7.16222e-08 1.63852 -4.61399e-08 1.05556C-2.06577e-08 0.472592 0.548811 4.16383e-06 1.22581 4.00467e-06L17.7742 -5.35816e-08C18.4512 -2.75653e-07 19 0.472587 19 1.05555Z" fill="currentColor"/>
</svg>