<svg width="7" height="9" viewBox="0 0 7 9" fill="none" xmlns="http://www.w3.org/2000/svg">
<path fill-rule="evenodd" clip-rule="evenodd" d="M6.09548 1.04872C6.35244 1.04872 6.56075 1.25703 6.56075 1.514V7.09732C6.56075 7.35428 6.35244 7.5626 6.09548 7.5626C5.83851 7.5626 5.6302 7.35428 5.6302 7.09732V1.514C5.6302 1.25703 5.83851 1.04872 6.09548 1.04872Z" fill="#484C5C"/>
<path fill-rule="evenodd" clip-rule="evenodd" d="M3.30381 0.118164C3.56078 0.118164 3.76909 0.326476 3.76909 0.583441L3.76909 8.02787C3.76909 8.28484 3.56078 8.49315 3.30381 8.49315C3.04685 8.49315 2.83854 8.28484 2.83854 8.02787L2.83854 0.583441C2.83854 0.326476 3.04685 0.118164 3.30381 0.118164Z" fill="#484C5C"/>
<path fill-rule="evenodd" clip-rule="evenodd" d="M0.512152 1.04872C0.769118 1.04872 0.977429 1.25703 0.977429 1.514L0.977429 7.09732C0.977429 7.35428 0.769117 7.5626 0.512152 7.5626C0.255187 7.5626 0.046875 7.35428 0.046875 7.09732L0.0468752 1.514C0.0468752 1.25703 0.255187 1.04872 0.512152 1.04872Z" fill="#484C5C"/>
</svg>
