<svg width="25" height="24" viewBox="0 0 25 24" fill="none" xmlns="http://www.w3.org/2000/svg">
<path fill-rule="evenodd" clip-rule="evenodd" d="M6.91563 3.75C4.43169 3.75 2.41797 5.76372 2.41797 8.24766V15.4247C2.41797 17.9086 4.43169 19.9224 6.91563 19.9224H15.5591C18.043 19.9224 20.0567 17.9086 20.0567 15.4247C20.0567 15.0105 20.3925 14.6747 20.8067 14.6747C21.2209 14.6747 21.5567 15.0105 21.5567 15.4247C21.5567 18.7371 18.8714 21.4224 15.5591 21.4224H6.91563C3.60326 21.4224 0.917969 18.7371 0.917969 15.4247V8.24766C0.917969 4.9353 3.60327 2.25 6.91563 2.25H15.5591C15.9733 2.25 16.3091 2.58579 16.3091 3C16.3091 3.41421 15.9733 3.75 15.5591 3.75H6.91563Z" fill="currentColor"/>
<path fill-rule="evenodd" clip-rule="evenodd" d="M15.6446 14.341L18.6143 11.8107C18.9072 11.5178 18.9072 11.0429 18.6143 10.75L15.6446 8.21967C15.3518 7.92678 14.8769 7.92678 14.584 8.21967C14.2911 8.51256 14.2911 8.98744 14.584 9.28033L16.2733 10.5303L9.08398 10.5303C8.66977 10.5303 8.33398 10.8661 8.33398 11.2803C8.33398 11.6945 8.66977 12.0303 9.08398 12.0303L16.2733 12.0303L14.584 13.2803C14.2911 13.5732 14.2911 14.0481 14.584 14.341C14.8769 14.6339 15.3518 14.6339 15.6446 14.341Z" fill="currentColor"/>
<path fill-rule="evenodd" clip-rule="evenodd" d="M8.52332 14.341L5.55365 11.8107C5.26076 11.5178 5.26076 11.0429 5.55365 10.75L8.52332 8.21967C8.81622 7.92678 9.29109 7.92678 9.58398 8.21967C9.87688 8.51256 9.87688 8.98744 9.58398 9.28033L7.89464 10.5303L15.084 10.5303C15.4982 10.5303 15.834 10.8661 15.834 11.2803C15.834 11.6945 15.4982 12.0303 15.084 12.0303L7.89464 12.0303L9.58398 13.2803C9.87688 13.5732 9.87688 14.0481 9.58398 14.341C9.29109 14.6339 8.81622 14.6339 8.52332 14.341Z" fill="currentColor"/>
</svg>
