<svg width="18" height="19" viewBox="0 0 18 19" fill="none" xmlns="http://www.w3.org/2000/svg" class="w-full h-full">
<path d="M8.03249 1.31662C8.59128 0.84498 9.40872 0.84498 9.96751 1.31662L11.3971 2.5233C11.6346 2.72376 11.9285 2.8455 12.2382 2.8717L14.1024 3.02935C14.831 3.09097 15.409 3.66899 15.4707 4.39761L15.6283 6.26176C15.6545 6.57145 15.7762 6.86536 15.9767 7.10286L17.1834 8.53249C17.655 9.09128 17.655 9.90872 17.1834 10.4675L15.9767 11.8971C15.7762 12.1346 15.6545 12.4285 15.6283 12.7382L15.4707 14.6024C15.409 15.331 14.831 15.909 14.1024 15.9707L12.2382 16.1283C11.9285 16.1545 11.6346 16.2762 11.3971 16.4767L9.96751 17.6834C9.40872 18.155 8.59128 18.155 8.03249 17.6834L6.60286 16.4767C6.36536 16.2762 6.07145 16.1545 5.76176 16.1283L3.89761 15.9707C3.16899 15.909 2.59097 15.331 2.52935 14.6024L2.3717 12.7382C2.3455 12.4285 2.22376 12.1346 2.0233 11.8971L0.816622 10.4675C0.34498 9.90872 0.34498 9.09128 0.816622 8.53249L2.0233 7.10286C2.22376 6.86536 2.3455 6.57145 2.3717 6.26176L2.52935 4.39761C2.59097 3.66899 3.16899 3.09097 3.89761 3.02935L5.76176 2.8717C6.07145 2.8455 6.36536 2.72376 6.60286 2.5233L8.03249 1.31662Z" fill="url(#paint0_linear_520_1499)"/>
<path d="M12 7.25L7.875 11.375L6 9.5" stroke="#ECF8FF" stroke-width="1.5" stroke-linecap="round" stroke-linejoin="round"/>
<defs>
<linearGradient id="paint0_linear_520_1499" x1="18.42" y1="5.22881" x2="-0.643426" y2="6.70991" gradientUnits="userSpaceOnUse">
<stop stop-color="#246CF9"/>
<stop offset="0.0001" stop-color="#1E68F6"/>
<stop offset="1" stop-color="#0047D0"/>
</linearGradient>
</defs>
</svg>